<?xml version="1.0" encoding="UTF-8"?>
<svg xmlns="http://www.w3.org/2000/svg" version="1.1" viewBox="0 0 585 590">
  <!-- Generator: Adobe Illustrator 28.7.7, SVG Export Plug-In . SVG Version: 1.2.0 Build 194)  -->
  <g>
    <g id="Layer_2">
      <path d="M157.3,250.4c-11.6,6.6-15.4,27.2-13.4,38.7,1.1,6,1.2,6.5,3.2,12,0,0,2.8,7.9,10.9,16.7s19.6,14.3,33.8,10.9c17.7-4.3,19.1-25.8,19.1-25.8,0,0,4.2-29.4-17.7-46.7s-35.9-5.7-35.9-5.7"/>
      <path d="M423.8,248.8c11.6,6.6,15.5,27.2,13.4,38.7-1.1,6-1.2,6.5-3.2,12,0,0-2.8,7.9-10.9,16.7s-19.6,14.3-33.8,10.9c-17.7-4.3-19.1-25.8-19.1-25.8,0,0-4.2-29.4,17.7-46.7,22-17.4,35.9-5.7,35.9-5.7"/>
      <path d="M229.9,174c1.5-.2,1.2-.2,1.5-.2,2.9-.2,18.5-1.1,28.8,10,10.3,11.1,18.3,26.7,16.5,50.7-1.7,21.8-15.1,31.1-22,32.7-11.8,2.7-28.4,1.4-40-17.5,0,0-8.9-13.1-9.4-31.8,0-9.9,3.4-27.9,10.3-35.3.2-.2-.2.2,0,0,5-5.7,11.7-8.2,14.2-8.6h0Z"/>
      <path d="M349.9,174c-1.5-.2-1.2-.2-1.5-.2-2.9-.2-18.5-1.1-28.8,10s-18.3,26.7-16.5,50.7c1.7,21.8,15.1,31.1,22,32.7,11.8,2.7,28.4,1.4,40-17.5,0,0,8.9-13.1,9.4-31.8.7-11.1-3.4-27.9-10.3-35.3-.2-.2.2.2,0,0-5-5.7-11.7-8.2-14.2-8.6h0Z"/>
      <path d="M286.5,278.3s-16.3,1.8-24.4,9.6c-.5.5-1,1-1.6,1.5-7.1,6.1-14.6,14.5-19.4,22.1-.9,1.5-1.5,2.8-2.8,4.6-3.9,5.4-13.7,19.1-16.1,21.5-.4.4-.8.8-1.1,1.2-3.8,4.5-13.4,13.6-18.3,18.4-1.7,1.7-2.2,2.4-4.6,5.6-6,8.1-11.6,18-12.6,26.6,0,.3.3-1.9.2-1.7-1.5,6.1-2.6,16.4.5,26.8,1,3.2,2.4,6.7,4,9.6,4.1,7.3,10.9,14.6,23.7,18.9,4.2,1.4,8.7,1.9,13.1,1.5,16.8-1.5,31.8-5.6,36-6.9.8-.2,1.5-.4,2.3-.6,2.7-.6,6.2-1.5,8.6-2,2-.5,3.9-.8,5.9-.9l5.2-.3c.9,0,1.8,0,2.8,0,2.6,0,8,.3,9.6.5,4.9.8,16.3,3.3,16.3,3.3,6.1,1.6,11.1,2.4,14.6,3.9,1.3.6,2.7,1,4.1,1.4,6,1.5,15.3,2.8,18.5,2.1,5.2-.5,18.1-2.3,22.9-6.3.3-.3-.9.6-.5.4,7.3-3.8,12.7-12.3,15.9-20.2.7-1.8,1.3-3.6,1.6-5.5,2-10.6,1.7-24.9-2.4-35-3.2-9.1-14.3-22.5-22-29.6-6.1-5.4-10.2-8.4-15.1-14.3s-11.2-16.3-14-20.7c-5-8.6-15.5-22.9-20.8-25.7-.4-.2.1,0,0,0-4.6-3.5-11.5-8.6-28.4-9.8"/>
      <path d="M292.5,507.8s-30.6-1.5-43.7-6c-.2,0-.4-.2-.6-.3-5.1-1.8-32-13.8-40.3-18.7-1.4-.8-1.7-1-1.6-1-9.9-4.9-36-26.5-39.3-32.9-.2-.5-.5-1-.9-1.4-5.5-6.3-18.4-23.3-22.4-30.2-4.6-7.9-24-42.6-27.8-61-2-6.9-7.3-31.4-9.3-47.5-.7-6.1-3.7-53.1-2.3-58.6,0-.1,0-.2,0-.3-.3-5.2,5-54.8,8.2-61.6.2-.4.3-.8.4-1.3,1.9-8.3,12.9-43.7,15.2-50.6,1.8-4.3,16.1-36,18.6-40.1l8.8-18.7s3-7.9,3.1-8.4c.2-.4.3-.8.5-1.2.2-.6,6.2-13.4,2.7-31-4.3-10-9.5-14.5-19.4-16.7-3.1-.2-11.2-1.3-21.1,3.2-2.7,1.4-15.3,8.3-22.3,17.7-4.4,5.4-18.7,27.7-21.3,33.3,0,.2-.1.3-.2.4-3.9,7.2-15.4,30.3-17,33.8-1,2.2-11.2,28.6-12.3,32.5-1.2,3.9-10.6,28.4-14.7,49.3-1.3,5.1-6.9,27.3-8.4,39.8-1.5,12.5-2.3,18.1-2.8,25.4v.2c0,5.6-2.6,31.6-.9,48.7-1,10.1,7.3,67,14.4,82.4,2.8,7.2,18.5,55.9,33,74.3,2.2,3.6,29.8,46,55.1,65.9,2.3,4.6,60.8,46,90.9,53.4,5.4,1.8,24.8,8.9,45.5,8.9h32c-.6-4.8,0-82.1,0-82.1ZM58,250.5h10.9v10.9h-10.9v-10.9ZM63.8,347.3l-2.2-10.7,10.7-2.2,2.2,10.7-10.7,2.2ZM95.5,428.4l-4.9-9.7,9.7-4.9,4.9,9.7-9.7,4.9ZM144.3,494.3l-7.7-7.7,7.7-7.7,7.7,7.7-7.7,7.7Z"/>
      <g>
        <path d="M560.4,256.5v-.2c-.5-7.3-1.3-13-2.8-25.4-1.5-12.5-7.1-34.7-8.4-39.8-4.1-20.9-13.5-45.4-14.7-49.3-1-3.9-11.2-30.3-12.3-32.5-1.5-3.5-13.1-26.6-17-33.8,0-.1-.1-.3-.2-.4-2.6-5.6-16.9-27.9-21.3-33.3-7-9.4-19.6-16.3-22.3-17.7-9.9-4.5-18-3.4-21.1-3.2-9.9,2.1-15.1,6.7-19.4,16.7-3.5,17.6,2.5,30.4,2.7,31,.2.4.3.8.5,1.2.2.5,3.1,8.4,3.1,8.4l8.8,18.7c2.5,4.1,16.8,35.8,18.6,40.1,2.2,6.9,13.3,42.2,15.2,50.6.1.4.3.9.5,1.3,3.1,6.8,8.5,56.4,8.2,61.6,0,.1,0,.2,0,.3,1.4,5.5-1.6,52.5-2.3,58.6-2,16.1-7.2,40.6-9.3,47.5-3.8,18.4-23.2,53.1-27.8,61-3.9,6.9-16.8,23.9-22.4,30.2-.4.4-.6.9-.9,1.4-3.2,6.4-29.3,28-39.3,32.9.1,0-.2.2-1.6,1-8.3,4.9-35.2,16.9-40.3,18.7-.2,0-.4.2-.6.3-13.1,4.5-43.7,6-43.7,6,0,0,.6,77.4,0,82.1h32c20.7,0,40.1-7.1,45.5-8.9,30.1-7.4,88.6-48.7,90.9-53.4,25.3-19.9,52.9-62.3,55.1-65.9,14.5-18.4,30.2-67.1,33-74.3,7.1-15.4,15.5-72.3,14.4-82.4,1.7-17.1-.9-43.1-.9-48.7ZM438.4,494.3l-7.7-7.7,7.7-7.7,7.7,7.7-7.7,7.7ZM487.2,428.4l-9.7-4.9,4.9-9.7,9.7,4.9-4.9,9.7ZM518.9,347.3l-10.7-2.2,2.2-10.7,10.7,2.2-2.2,10.7ZM524.7,261.4h-10.9v-10.9h10.9v10.9Z"/>
        <path d="M375.7,482.4c.3-.1.6-.3,1-.5-.2,0-1.1.5-1,.5Z"/>
      </g>
    </g>
  </g>
</svg>